solid slopcad_tetrahedron
  facet normal 0 0 -1
    outer loop
      vertex 0 0 0
      vertex 0 10 0
      vertex 10 0 0
    endloop
  endfacet
  facet normal -1 0 0
    outer loop
      vertex 0 0 0
      vertex 0 0 10
      vertex 0 10 0
    endloop
  endfacet
  facet normal 0 -1 0
    outer loop
      vertex 0 0 0
      vertex 10 0 0
      vertex 0 0 10
    endloop
  endfacet
  facet normal 0.5773502691896258 0.5773502691896258 0.5773502691896258
    outer loop
      vertex 10 0 0
      vertex 0 10 0
      vertex 0 0 10
    endloop
  endfacet
endsolid slopcad_tetrahedron
